<svg xmlns="http://www.w3.org/2000/svg" viewBox="0 0 60 60" fill="none">
  <rect width="60" height="60" rx="8" fill="#4A90E2"/>
  <path d="M30 15C22.268 15 16 21.268 16 29C16 36.732 22.268 43 30 43C37.732 43 44 36.732 44 29C44 21.268 37.732 15 30 15ZM30 19C35.523 19 40 23.477 40 29C40 34.523 35.523 39 30 39C24.477 39 20 34.523 20 29C20 23.477 24.477 19 30 19Z" fill="white"/>
  <path d="M30 23C26.686 23 24 25.686 24 29C24 32.314 26.686 35 30 35C33.314 35 36 32.314 36 29C36 25.686 33.314 23 30 23Z" fill="white"/>
</svg>